<?xml version="1.0" encoding="UTF-8"?>
<!-- Created with Inkscape (http://www.inkscape.org/) -->
<svg width="112.87mm" height="22.059mm" version="1.1" viewBox="0 0 112.87 22.059" xmlns="http://www.w3.org/2000/svg" xmlns:cc="http://creativecommons.org/ns#" xmlns:dc="http://purl.org/dc/elements/1.1/" xmlns:rdf="http://www.w3.org/1999/02/22-rdf-syntax-ns#">
 <metadata>
  <rdf:RDF>
   <cc:Work rdf:about="">
    <dc:format>image/svg+xml</dc:format>
    <dc:type rdf:resource="http://purl.org/dc/dcmitype/StillImage"/>
    <dc:title/>
   </cc:Work>
  </rdf:RDF>
 </metadata>
 <g transform="translate(-8.3785,-115.26)">
  <g stroke-width=".26458px" aria-label="Huispedia.nl">
   <g fill="#25315a" stroke-width=".19289px">
    <path d="m38.876 121.06h2.8886v12.832h-2.8886v-5.444h-4.8514v5.444h-2.8886v-12.832h2.8886v4.907h4.8514z"/>
    <path d="m52.864 133.56q-0.70365 0.20369-1.8147 0.37034-1.111 0.18517-2.3331 0.18517-1.2406 0-2.0739-0.3333-0.81475-0.33331-1.2962-0.92585-0.48144-0.61106-0.68513-1.4443-0.20369-0.83326-0.20369-1.8332v-5.4255h2.759v5.0922q0 1.3332 0.35182 1.9258 0.35182 0.59255 1.3147 0.59255 0.29627 0 0.62958-0.0185 0.33331-0.037 0.59254-0.0741v-7.5179h2.759z"/>
    <path d="m58.231 133.89h-2.759v-9.7399h2.759zm0.25924-12.555q0 0.75919-0.49996 1.2036-0.48144 0.42589-1.1481 0.42589-0.66661 0-1.1666-0.42589-0.48144-0.44441-0.48144-1.2036 0-0.7592 0.48144-1.1851 0.49996-0.44441 1.1666-0.44441 0.66661 0 1.1481 0.44441 0.49996 0.42589 0.49996 1.1851z"/>
    <path d="m63.62 131.91q0.7592 0 1.074-0.14813 0.31479-0.14814 0.31479-0.57403 0-0.33331-0.40737-0.57403-0.40737-0.25923-1.2406-0.57402-0.64809-0.24072-1.1851-0.49996-0.51848-0.25924-0.88882-0.61106-0.37034-0.37034-0.57403-0.8703t-0.20369-1.2036q0-1.3703 1.0184-2.1665 1.0184-0.79623 2.7961-0.79623 0.88882 0 1.7036 0.16665 0.81475 0.14814 1.2962 0.33331l-0.48144 2.148q-0.48144-0.16665-1.0555-0.29627-0.55551-0.12962-1.2592-0.12962-1.2962 0-1.2962 0.72216 0 0.16665 0.05555 0.29627t0.2222 0.25924q0.16665 0.1111 0.44441 0.25924 0.29627 0.12962 0.74068 0.29627 0.90733 0.3333 1.4999 0.66661 0.59254 0.31479 0.92585 0.70365 0.35182 0.37033 0.48144 0.83326 0.14814 0.46292 0.14814 1.074 0 1.4443-1.0925 2.185-1.074 0.74068-3.0553 0.74068-1.2962 0-2.1665-0.22221-0.85178-0.2222-1.1851-0.37034l0.46292-2.2406q0.70365 0.27775 1.4443 0.44441 0.74068 0.14813 1.4628 0.14813z"/>
    <path d="m76.033 129.1q0-1.2777-0.57403-2.0369-0.57403-0.77771-1.7036-0.77771-0.37034 0-0.68513 0.037-0.31479 0.0185-0.51848 0.0556v4.9811q0.25924 0.16666 0.66661 0.27776 0.42589 0.1111 0.85178 0.1111 1.9628 0 1.9628-2.6479zm2.8146-0.0741q0 1.1295-0.27776 2.0554t-0.81475 1.5925-1.3332 1.037q-0.79623 0.37034-1.8332 0.37034-0.57403 0-1.074-0.1111-0.49996-0.1111-0.96288-0.31479v3.6664h-2.759v-12.832q0.37034-0.1111 0.85178-0.20368 0.48144-0.1111 0.99992-0.18517 0.53699-0.0741 1.074-0.1111 0.55551-0.0556 1.0555-0.0556 1.2036 0 2.148 0.37034 0.94437 0.35183 1.5925 1.0184 0.64809 0.64809 0.9814 1.5925 0.35182 0.94436 0.35182 2.1109z"/>
    <path d="m80.506 129.1q0-1.2962 0.38886-2.2591 0.40737-0.9814 1.0555-1.6295 0.64809-0.6481 1.4814-0.9814 0.85178-0.33331 1.7406-0.33331 2.0739 0 3.2775 1.2777 1.2036 1.2592 1.2036 3.7219 0 0.24073-0.01852 0.537-0.01852 0.27775-0.03703 0.49996h-6.2587q0.09258 0.85178 0.79623 1.3517 0.70364 0.49996 1.8887 0.49996 0.7592 0 1.4814-0.12962 0.74068-0.14813 1.2036-0.35182l0.37034 2.2406q-0.2222 0.1111-0.59254 0.2222t-0.83326 0.18517q-0.44441 0.0926-0.96288 0.14814-0.51848 0.0555-1.037 0.0555-1.3147 0-2.2961-0.38886-0.96288-0.38886-1.611-1.0555-0.62957-0.68513-0.94436-1.611-0.29627-0.92585-0.29627-1.9998zm6.4809-1.0555q-0.01852-0.35182-0.12962-0.68512-0.09258-0.33331-0.31479-0.59255-0.20369-0.25924-0.53699-0.42589-0.31479-0.16665-0.79623-0.16665-0.46292 0-0.79623 0.16665-0.33331 0.14814-0.55551 0.40738-0.2222 0.25923-0.35182 0.61106-0.1111 0.3333-0.16665 0.68512z"/>
    <path d="m94.134 128.95q0 1.2777 0.57403 2.0554 0.57403 0.77771 1.7036 0.77771 0.37034 0 0.68513-0.0185 0.31479-0.037 0.51848-0.0741v-5.0181q-0.25924-0.16666-0.68513-0.27776-0.40737-0.1111-0.83326-0.1111-1.9628 0-1.9628 2.6664zm6.2402 4.6292q-0.37033 0.1111-0.85178 0.2222-0.48144 0.0926-1.0184 0.16666-0.51848 0.0741-1.074 0.1111-0.53699 0.0555-1.037 0.0555-1.2036 0-2.148-0.35182-0.94437-0.35183-1.5925-0.99992-0.64809-0.66661-0.99992-1.5925-0.3333-0.94437-0.3333-2.1109 0-1.1851 0.29627-2.1294 0.29627-0.96288 0.85178-1.6295 0.55551-0.66661 1.3517-1.0184 0.81475-0.35182 1.8517-0.35182 0.57403 0 1.0184 0.1111 0.46292 0.11111 0.92585 0.31479v-4.407l2.759-0.44441z"/>
    <path d="m105.72 133.89h-2.759v-9.7399h2.759zm0.25924-12.555q0 0.75919-0.49996 1.2036-0.48144 0.42589-1.148 0.42589t-1.1666-0.42589q-0.48144-0.44441-0.48144-1.2036 0-0.7592 0.48144-1.1851 0.49996-0.44441 1.1666-0.44441t1.148 0.44441q0.49996 0.42589 0.49996 1.1851z"/>
    <path d="m112.03 131.97q0.40737 0 0.77771-0.0185t0.59255-0.0555v-2.0924q-0.16666-0.037-0.49996-0.0741-0.33331-0.037-0.61106-0.037-0.38886 0-0.74068 0.0556-0.33331 0.037-0.59254 0.16665-0.25924 0.12962-0.40738 0.35182-0.14813 0.2222-0.14813 0.55551 0 0.64809 0.42589 0.90733 0.4444 0.24072 1.2036 0.24072zm-0.2222-8.0734q1.2221 0 2.0369 0.27776 0.81475 0.27775 1.2962 0.79623 0.49996 0.51847 0.70365 1.2592 0.20368 0.74068 0.20368 1.648v5.7403q-0.59254 0.12962-1.648 0.29628-1.0555 0.18517-2.5553 0.18517-0.94437 0-1.7221-0.16666-0.75919-0.16665-1.3147-0.53699-0.55551-0.38886-0.85179-0.99992-0.29627-0.61106-0.29627-1.4999 0-0.85178 0.33331-1.4443 0.35182-0.59254 0.92585-0.94436 0.57402-0.35182 1.3147-0.49996 0.74068-0.16665 1.5369-0.16665 0.53699 0 0.94437 0.0555 0.42589 0.037 0.68513 0.1111v-0.25924q0-0.70364-0.42589-1.1295t-1.4814-0.42589q-0.70365 0-1.3888 0.1111-0.68512 0.0926-1.1851 0.27775l-0.35183-2.222q0.24073-0.0741 0.59255-0.14813 0.37034-0.0926 0.79623-0.14814 0.42589-0.0741 0.88881-0.1111 0.48144-0.0556 0.96289-0.0556z"/>
   </g>
   <path d="m121.25 132.43q0 0.83326-0.53699 1.2777-0.51847 0.42589-1.1851 0.42589-0.66662 0-1.2036-0.42589-0.51847-0.44441-0.51847-1.2777 0-0.83327 0.51847-1.2592 0.53699-0.4444 1.2036-0.4444t1.1851 0.4444q0.53699 0.42589 0.53699 1.2592z" fill="#ff385c" stroke-width=".19289px"/>
   <g transform="matrix(.60572 0 0 .60572 8.3785 115.02)" fill-rule="evenodd">
    <path d="m0 15.22c0-1.509 0.648-2.948 1.785-3.963l11.38-10.16a2.764 2.764 0 0 1 3.67 0l11.38 10.16a5.314 5.314 0 0 1 1.785 3.963v13.7c0 1.48-1.221 2.679-2.727 2.679h-24.546c-1.506 1e-3 -2.727-1.199-2.727-2.677z" fill="#ff385c" fill-rule="nonzero"/>
    <path d="m15.349 23.879c3.5572-0.70273 6.3184-2.3218 7.3163-4.4791-0.54928 4.26-4.0967 7.5474-8.3916 7.5474-3.0244 0-5.6779-1.6304-7.1752-4.0823 1.7859 1.3965 4.9341 1.6692 8.2505 1.014zm2.4669-9.1063c0 1.3448 0.72672 2.4349 1.6233 2.4349 0.89656 0 1.6233-1.0901 1.6233-2.4349s-0.72672-2.4349-1.6233-2.4349c-0.89656 0-1.6233 1.0901-1.6233 2.4349zm-7.3047 1.5779c-1.2035-0.0331-2.3439 0.22072-2.4349-1.115 0-0.78795 1.0901-1.4267 2.4349-1.4267s2.4349 0.63876 2.4349 1.4267c0.07137 1.2534-1.503 1.094-2.4349 1.115z" fill="#fff" stroke-width=".013422px"/>
   </g>
  </g>
 </g>
</svg>
